<svg width="56" height="56" viewBox="0 0 56 56" fill="none" xmlns="http://www.w3.org/2000/svg">
<g id="jest">
<g id="jest_2">
<path id="Vector" d="M41.5591 27.7631C41.5591 26.1696 40.1323 24.8777 38.3724 24.8777C38.2591 24.8777 38.1475 24.8832 38.0373 24.8937L42.4143 13.2047H23.8138L28.1847 24.8835C28.1202 24.8798 28.0556 24.8779 27.9909 24.8778C26.231 24.8778 24.8043 26.1695 24.8043 27.7632C24.8043 29.0513 25.7366 30.1419 27.0233 30.5129C26.3437 31.5788 25.4885 32.5389 24.5176 33.3684C23.1973 34.4961 21.6863 35.3513 20.0521 35.8781C18.1064 34.9731 17.1876 32.9603 18.0166 31.1955C18.1103 30.9962 18.2058 30.7942 18.2972 30.5931C19.7068 30.2952 20.7573 29.151 20.7573 27.7839C20.7573 26.1902 19.3305 24.8984 17.5704 24.8984C15.8104 24.8984 14.3838 26.1902 14.3838 27.7839C14.3838 28.7611 14.9207 29.6243 15.7415 30.1463C14.9528 31.7723 13.7934 33.4741 13.4321 35.4465C12.9992 37.8102 13.4307 40.3193 15.6885 41.7364C20.9469 45.0363 26.6548 39.6906 32.673 38.3468C34.854 37.8598 37.2483 37.9383 39.1699 36.9306C40.6129 36.1738 41.5643 34.9196 41.8342 33.5116C42.1011 32.1206 41.7122 30.7356 40.8179 29.6127C41.2977 29.0943 41.5601 28.4394 41.5591 27.7631" fill="#99425B"/>
<path id="Vector_2" d="M41.0675 33.391C40.8331 34.6135 39.9992 35.6812 38.7799 36.3208C37.6431 36.9169 36.281 37.0948 34.8387 37.2831C34.0661 37.3839 33.2672 37.4884 32.4867 37.6626C30.423 38.1233 28.4242 39.0223 26.4913 39.8917C22.6228 41.6315 19.2821 43.1339 16.132 41.157C13.8246 39.7091 13.9311 37.0299 14.1999 35.5618C14.449 34.2016 15.1227 32.9489 15.7739 31.7375C15.8849 31.5316 15.995 31.3253 16.1041 31.1186C16.4324 31.2375 16.7769 31.3157 17.1283 31.3513C16.4653 33.3326 17.508 35.487 19.6965 36.505L19.9961 36.6444L20.3132 36.5421C22.0434 35.9841 23.6377 35.0889 25.0517 33.8808C25.9658 33.1 26.7517 32.2361 27.3977 31.313C27.5941 31.3399 27.7924 31.3533 27.991 31.3534C29.9997 31.3534 31.663 29.9937 31.9204 28.2376C32.7426 28.2103 33.6159 28.2101 34.4429 28.2374C34.7 29.9937 36.3636 31.3535 38.3723 31.3535C39.2122 31.3535 39.9912 31.1151 40.6331 30.7103C41.0786 31.5361 41.2449 32.4654 41.0675 33.391V33.391ZM17.5706 25.6031C18.8987 25.6031 19.979 26.5814 19.979 27.7839C19.979 28.2158 19.839 28.6186 19.5987 28.9578C19.1984 29.5231 18.5179 29.9106 17.7361 29.959C17.6814 29.9623 17.6262 29.9647 17.5706 29.9647C17.2746 29.9647 16.9911 29.9158 16.729 29.827C16.201 29.6473 15.7589 29.3063 15.4789 28.863C15.271 28.5346 15.1618 28.1625 15.1621 27.7839C15.1621 26.5814 16.2425 25.6031 17.5706 25.6031V25.6031ZM25.5827 27.7632C25.5827 26.6706 26.4747 25.7635 27.6336 25.6066C27.7503 25.5907 27.8697 25.5825 27.9911 25.5825C28.7632 25.5825 29.4506 25.9136 29.8915 26.4268C30.0019 26.5547 30.0962 26.6934 30.1727 26.8403C30.3224 27.1291 30.3998 27.4442 30.3995 27.7632C30.3995 27.9375 30.3762 28.107 30.3334 28.2695C30.0987 29.1592 29.2608 29.8393 28.2341 29.9329C28.1543 29.9402 28.0732 29.9439 27.9911 29.9439C27.5278 29.9443 27.0744 29.8229 26.6859 29.5945C26.0228 29.2056 25.5827 28.5302 25.5827 27.7632V27.7632ZM35.6347 25.1699C35.1106 25.6229 34.7334 26.1971 34.544 26.8303C33.6362 26.8 32.7275 26.8 31.8197 26.8303C31.6159 26.1458 31.1936 25.5419 30.6252 25.0833L33.1175 20.5204L35.6347 25.1699ZM24.8994 13.9097H41.3286L37.4482 24.2723C37.2812 24.3085 37.1171 24.3546 36.9568 24.4102L33.1235 17.3297L29.2794 24.3679C29.1118 24.3158 28.9405 24.274 28.7667 24.2428L24.8994 13.9097ZM40.7807 27.7633C40.7807 27.9819 40.7447 28.193 40.6783 28.3923C40.5209 28.8617 40.194 29.2696 39.75 29.5506C39.3464 29.807 38.8653 29.9444 38.3723 29.944C37.2603 29.944 36.3222 29.2579 36.0464 28.3286C35.9916 28.1443 35.9639 27.9542 35.9639 27.7633C35.9639 27.4652 36.0304 27.1809 36.1505 26.9219C36.2124 26.7894 36.2887 26.6628 36.3783 26.5439C36.8117 25.9646 37.5431 25.5826 38.3723 25.5826C38.4484 25.5826 38.5233 25.5861 38.5977 25.5925C39.8204 25.6956 40.7808 26.6296 40.7808 27.7633H40.7807ZM42.3374 27.7633C42.3374 26.0105 40.9426 24.548 39.1056 24.2356L43.5 12.5H22.7283L27.1295 24.2594C25.3562 24.6167 24.0261 26.0515 24.0261 27.7632C24.0261 29.0485 24.7763 30.1774 25.9005 30.8119C25.3597 31.5414 24.7185 32.2279 23.9837 32.8557C22.8182 33.8512 21.5198 34.6062 20.1201 35.103C18.7101 34.3011 18.1142 32.7887 18.7331 31.4713L18.7816 31.3681L18.8726 31.1743C20.4212 30.6852 21.5356 29.3507 21.5356 27.7839C21.5356 25.8042 19.7569 24.1937 17.5706 24.1937C15.3843 24.1937 13.6054 25.8042 13.6054 27.7839C13.6054 28.7831 14.059 29.688 14.7891 30.3395C14.6529 30.6008 14.5147 30.8611 14.3744 31.1205C13.7069 32.3618 12.9504 33.7687 12.6643 35.3311C12.0961 38.4341 13.0127 40.9145 15.2453 42.3155C16.6 43.1657 17.9759 43.5 19.3603 43.5C21.9672 43.5 24.6044 42.3141 27.1837 41.154C29.0412 40.3187 30.9621 39.4548 32.8595 39.031C33.5654 38.8734 34.2918 38.7785 35.0609 38.6781C36.5861 38.4789 38.163 38.2729 39.56 37.5404C41.1793 36.6911 42.2877 35.2665 42.6011 33.6322C42.8702 32.229 42.5464 30.8236 41.7567 29.6316C42.1372 29.0694 42.3382 28.4226 42.3374 27.7632V27.7633Z" fill="white"/>
</g>
</g>
</svg>
