<svg width="56" height="56" viewBox="0 0 56 56" fill="none" xmlns="http://www.w3.org/2000/svg">
<g id="prisma">
<g id="prisma_2">
<path id="Vector" fill-rule="evenodd" clip-rule="evenodd" d="M14.2658 35.2694C13.9164 34.6436 13.9111 33.8464 14.2522 33.2145L27.0965 9.42712C27.811 8.10407 29.536 8.21975 30.1083 9.62907L41.8422 38.5278C42.2775 39.6 41.7764 40.8616 40.7802 41.2009L22.5272 47.418C21.7928 47.668 21.0015 47.3329 20.591 46.5976L14.2658 35.2694ZM28.5785 16.3824C28.7023 15.6826 29.5468 15.5817 29.7962 16.2369L37.8901 37.5006C38.0424 37.9009 37.8528 38.3626 37.4847 38.4873L24.8733 42.7615C24.4098 42.9186 23.9657 42.4588 24.061 41.9202L28.5785 16.3824Z" fill="white"/>
</g>
</g>
</svg>
