<svg width="72" height="72" viewBox="0 0 72 72" fill="none" xmlns="http://www.w3.org/2000/svg">
<g id="supabase">
<g id="supabase_2">
<path id="Vector" d="M39.3752 55.3354C38.3256 56.6222 36.1975 55.9172 36.1722 54.274L35.8024 30.2412H52.4005C55.4069 30.2412 57.0836 33.6219 55.2142 35.9142L39.3752 55.3354Z" fill="url(#paint0_linear_790_7068)"/>
<path id="Vector_2" d="M39.3752 55.3354C38.3256 56.6222 36.1975 55.9172 36.1722 54.274L35.8024 30.2412H52.4005C55.4069 30.2412 57.0836 33.6219 55.2142 35.9142L39.3752 55.3354Z" fill="url(#paint1_linear_790_7068)" fill-opacity="0.2"/>
<path id="Vector_3" d="M32.6248 16.6646C33.6744 15.3776 35.8026 16.0828 35.8279 17.726L35.99 41.7588H19.5995C16.5931 41.7588 14.9163 38.3781 16.7858 36.0858L32.6248 16.6646Z" fill="#3ECF8E"/>
</g>
</g>
<defs>
<linearGradient id="paint0_linear_790_7068" x1="35.8024" y1="35.5699" x2="50.4339" y2="41.8728" gradientUnits="userSpaceOnUse">
<stop stop-color="#249361"/>
<stop offset="1" stop-color="#3ECF8E"/>
</linearGradient>
<linearGradient id="paint1_linear_790_7068" x1="29.2622" y1="26.8518" x2="35.713" y2="39.3247" gradientUnits="userSpaceOnUse">
<stop/>
<stop offset="1" stop-opacity="0"/>
</linearGradient>
</defs>
</svg>
