<svg width="56" height="56" viewBox="0 0 56 56" fill="none" xmlns="http://www.w3.org/2000/svg">
<g id="swagger">
<g id="swagger_2">
<path id="Vector" d="M28.1227 42.6527C19.9834 42.6527 13.3615 36.0313 13.3615 27.8917C13.3615 19.7521 19.9834 13.1306 28.1227 13.1306C36.2619 13.1306 42.8839 19.7527 42.8839 27.892C42.8839 36.0313 36.2619 42.6527 28.1227 42.6527Z" fill="#85EA2D"/>
<path id="Vector_2" d="M27.9312 13.9882C35.6757 13.9882 41.9535 20.266 41.9535 28.0106C41.9535 35.7549 35.6757 42.033 27.9312 42.033C20.1871 42.033 13.909 35.7549 13.909 28.0106C13.909 20.2664 20.1871 13.9882 27.9312 13.9882ZM27.9312 12.5106C19.3846 12.5106 12.4314 19.4639 12.4314 28.0106C12.4314 36.5574 19.3846 43.5106 27.9312 43.5106C36.4779 43.5106 43.4314 36.5574 43.4314 28.0106C43.4314 19.4639 36.4779 12.5106 27.9312 12.5106Z" fill="#173647"/>
<path id="Vector_3" d="M22.3264 22.8612C22.2787 23.3916 22.344 23.94 22.3087 24.4763C22.2669 25.013 22.2012 25.5434 22.094 26.0738C21.945 26.8308 21.474 27.403 20.8246 27.8799C22.0884 28.7025 22.2313 29.9777 22.3146 31.2713C22.3564 31.9687 22.3385 32.672 22.41 33.3633C22.4636 33.8996 22.6721 34.0368 23.2267 34.0545C23.4532 34.0604 23.6853 34.0545 23.948 34.0545V35.7115C22.309 35.9916 20.956 35.5268 20.622 34.1382C20.5145 33.6316 20.4429 33.1129 20.4194 32.5884C20.3834 32.0341 20.4429 31.4798 20.4014 30.9255C20.2821 29.4055 20.0854 28.893 18.6313 28.8214V26.9321C18.7385 26.9082 18.8399 26.8902 18.9471 26.8785C19.7458 26.8366 20.0854 26.5922 20.2583 25.8055C20.3419 25.3646 20.3896 24.9175 20.4073 24.4646C20.4671 23.6004 20.4432 22.7183 20.5919 21.8601C20.8005 20.6264 21.5636 20.0302 22.8333 19.9587C23.1908 19.9407 23.5545 19.9587 23.9657 19.9587V21.6516C23.7928 21.6637 23.6438 21.6872 23.4889 21.6872C22.4577 21.6513 22.4038 22.0029 22.3264 22.8612ZM24.3111 26.783H24.2873C23.6912 26.7533 23.1787 27.2181 23.1487 27.8142C23.1189 28.4162 23.5837 28.9289 24.1798 28.9584H24.2513C24.8416 28.9943 25.3478 28.541 25.3838 27.9511V27.8916C25.3959 27.2896 24.9131 26.7951 24.3111 26.783ZM28.0483 26.783C27.4702 26.7651 26.9871 27.2181 26.9695 27.7903C26.9695 27.8263 26.9695 27.856 26.9757 27.8916C26.9757 28.5413 27.4166 28.9587 28.0842 28.9587C28.7398 28.9587 29.1513 28.5296 29.1513 27.856C29.1451 27.2063 28.7098 26.7772 28.0483 26.783ZM31.875 26.783C31.2671 26.771 30.7602 27.254 30.7426 27.8619C30.7426 28.4698 31.2312 28.9584 31.8391 28.9584H31.8512C32.3996 29.0538 32.9538 28.5234 32.9898 27.8857C33.0192 27.2955 32.4829 26.783 31.875 26.783ZM37.126 26.8723C36.4345 26.8425 36.0887 26.6102 35.9161 25.9542C35.8086 25.5372 35.7432 25.1019 35.7194 24.6728C35.6717 23.874 35.6776 23.0694 35.624 22.2706C35.4988 20.3754 34.1281 19.7139 32.1371 20.0414V21.6866C32.4528 21.6866 32.6973 21.6866 32.9418 21.6925C33.365 21.6984 33.6869 21.8595 33.7284 22.3304C33.7702 22.7596 33.7702 23.1946 33.8121 23.6299C33.8957 24.4943 33.9431 25.3702 34.0922 26.2226C34.2235 26.9259 34.7062 27.4504 35.3079 27.8795C34.2533 28.5887 33.9431 29.6019 33.8895 30.7405C33.8598 31.5213 33.8418 32.308 33.8003 33.095C33.7644 33.8101 33.5143 34.0424 32.793 34.0604C32.5904 34.0663 32.3937 34.0843 32.1672 34.0963V35.7831C32.5904 35.7831 32.9777 35.8069 33.365 35.7831C34.569 35.7115 35.2962 35.1275 35.5347 33.9591C35.636 33.3152 35.6955 32.6658 35.7135 32.0161C35.755 31.42 35.7494 30.818 35.8089 30.2281C35.8981 29.3042 36.3214 28.9228 37.2453 28.8633C37.3348 28.8512 37.4182 28.8335 37.5018 28.8038V26.9141C37.3466 26.8961 37.2391 26.8785 37.126 26.8723Z" fill="#173647"/>
</g>
</g>
</svg>
