<svg width="56" height="56" viewBox="0 0 56 56" fill="none" xmlns="http://www.w3.org/2000/svg">
<g id="zod">
<g id="zod_2">
<path id="Vector" d="M41.3983 22.0413L36.4958 16.6329H19.7354L14.5912 22.0413L27.5209 38.4948L41.3983 22.0413Z" fill="#142641"/>
<path id="Union" d="M37.7535 17.3044L38.1295 17.075L40.0016 20.5017L23.1647 30.7751H29.7535V30.2302H34.9674V30.822H34.0309V32.8748H32.5641V34.615H22.8209V32.8748H21.4537V31.8191L21.3785 31.865L19.5065 28.4382L33.5426 19.8738L33.2848 19.4011L37.4957 16.8318L37.7535 17.3044ZM26.3903 15.5349L26.526 15.4519L26.819 15.988L26.9147 15.9294L27.1823 16.4197L27.986 15.9294L28.2438 16.4021L28.7731 16.0789L28.9948 16.4841L29.903 15.9294L30.2877 16.6335L16.2731 25.1853L15.8883 24.4812L15.7115 24.158L15.6666 24.1853L15.4811 23.8445L15.3639 23.9158L15.0709 23.3796L14.9762 23.4382L14.7262 22.9822L14.5914 23.0652L14.2067 22.3601L26.1412 15.0789L26.3903 15.5349Z" fill="#274D82"/>
<path id="Vector_2" fill-rule="evenodd" clip-rule="evenodd" d="M37.1554 15H19.0975L12.5 21.9367L27.4786 41L28.6738 39.5831L43.5 22.0017L37.1554 15ZM36.4958 16.6332L41.3983 22.0416L27.5209 38.495L14.5912 22.0416L19.7354 16.6332H36.4958Z" fill="#3068B7"/>
</g>
</g>
</svg>
